<svg height="511pt" viewBox="-113 1 511 511.999" width="511pt" xmlns="http://www.w3.org/2000/svg"><path d="m209.125 167.378906 30.09375-66.121094c11.390625-22.34375 4.648438-47.332031-16.480469-60.886718-10.332031-6.628906-22.460937-8.5625-34.148437-5.445313-.734375.195313-1.460938.410157-2.179688.644531-5.320312-20.492187-22.855468-35.570312-43.601562-35.570312-20.75 0-38.28125 15.078125-43.601563 35.570312-.71875-.234374-1.445312-.449218-2.179687-.644531-11.6875-3.117187-23.816406-1.183593-34.148438 5.445313-21.128906 13.554687-27.871094 38.542968-16.480468 60.886718l30.09375 66.121094c-45.136719 24.976563-75.980469 74.671875-75.992188 131.777344-.007812 30.746094 9.339844 61.425781 26.316406 86.386719 13.304688 19.5625 31.554688 33.609375 49.203125 47.191406 6.953125 5.351563 13.519531 10.40625 19.722657 15.730469 10.214843 8.765625 18.101562 18.488281 23.4375 28.894531 1.21875 2.378906 3.648437 8.191406 6.199218 20.394531 1.757813 8.402344 8.953125 14.246094 17.523438 14.246094h.105468c8.617188-.050781 15.796876-5.992188 17.464844-14.449219 2.386719-12.101562 4.765625-17.84375 5.964844-20.191406 5.339844-10.40625 13.222656-20.125 23.4375-28.894531 6.203125-5.324219 12.773438-10.378906 19.722656-15.730469 17.652344-13.582031 35.902344-27.628906 49.207032-47.191406 16.976562-24.960938 26.320312-55.640625 26.316406-86.386719-.011719-57.105469-30.859375-106.800781-75.996094-131.777344zm-135.570312-78.871094c-.105469-.238281-.222657-.472656-.339844-.703124-4.5625-8.78125-2.425782-16.867188 5.863281-22.183594 4.035156-2.589844 7.785156-2.355469 10.21875-1.707032 4.03125 1.074219 7.480469 4.023438 9.703125 8.308594l.242188.464844c3.1875 6.132812 10.15625 9.285156 16.871093 7.648438 6.714844-1.640626 11.4375-7.65625 11.4375-14.570313v-17.148437c0-10.265626 6.84375-18.617188 15.257813-18.617188 8.414062 0 15.257812 8.351562 15.257812 18.617188v17.148437c0 6.910156 4.722656 12.929687 11.4375 14.570313 6.714844 1.640624 13.679688-1.519532 16.871094-7.652344l.242188-.464844c2.222656-4.28125 5.671874-7.230469 9.703124-8.308594 2.433594-.648437 6.183594-.878906 10.21875 1.710938 8.289063 5.316406 10.425782 13.402344 5.863282 22.179687-.117188.230469-.234375.46875-.339844.703125l-30.617188 67.273438c-12.234374-3.605469-25.128906-5.542969-38.449218-5.542969-.125 0-.25 0-.375 0-13.320313 0-26.214844 1.9375-38.449219 5.542969zm117.746093 320.453126c-6.960937 5.355468-14.152343 10.894531-20.96875 16.738281-11.394531 9.78125-20.628906 20.65625-27.523437 32.394531-6.894532-11.734375-16.132813-22.609375-27.527344-32.394531-6.8125-5.84375-14.003906-11.382813-20.964844-16.738281-16.503906-12.699219-32.09375-24.699219-42.695312-40.289063-5.722656-8.414063-10.351563-17.660156-13.8125-27.382813h66.683594c8.285156 0 15-6.714843 15-15 0-8.28125-6.714844-15-15-15h-69.371094c-1.371094 0-2.695313.203126-3.957032.546876-.429687-4.207032-.664062-8.4375-.664062-12.671876 0-5.382812.347656-10.679687 1.003906-15.875h34.945313c8.285156 0 15-6.714843 15-15 0-8.28125-6.714844-15-15-15h-27.261719c16.964844-42.867187 56.941406-73.054687 103.433594-73.054687h.1875.1875c56.414062 0 103.230468 44.441406 110.988281 102.054687h-71.78125c-8.28125 0-15 6.71875-15 15 0 8.285157 6.71875 15 15 15h72.210937c-1.054687 9.953126-3.304687 19.75-6.640624 29.101563-1.738282-.703125-3.636719-1.101563-5.625-1.101563h-37.660157c-8.28125 0-15 6.71875-15 15 0 8.285157 6.71875 15 15 15h28.359375c-10.5625 14.804688-25.621094 26.417969-41.546875 38.671876zm0 0"/></svg>